<svg width="500" height="500" viewBox="0 0 500 500" fill="none" xmlns="http://www.w3.org/2000/svg">
<path d="M247.319 18C294.976 18 330.935 27.7481 355.197 47.2441C379.892 66.3071 392.24 94.252 392.24 131.078C392.24 158.806 385.308 181.769 371.444 199.966C358.014 217.729 338.3 230.077 312.306 237.009C343.066 244.374 366.462 258.021 382.492 277.95C398.956 297.88 407.188 323.659 407.188 355.286C407.187 396.445 393.973 427.856 367.545 449.519C341.55 471.181 303.858 482.012 254.468 482.012H92V18H247.319ZM123.83 458.616H253.168C253.175 458.616 253.182 458.615 253.188 458.615C269.386 456.721 282.113 453.218 291.467 448.188C298.794 444.247 304.153 439.321 307.693 433.46C311.232 427.601 313.055 420.639 313.055 412.471C313.055 395.849 305.904 383.376 291.358 374.73C276.6 365.959 254.739 361.399 225.425 361.399H123.83V458.616ZM300.938 254.87C309.253 259.612 315.715 265.399 320.191 272.281C325.103 279.833 327.522 288.545 327.522 298.312C327.522 313.078 322.045 325.425 311.15 335.142L311.151 335.143C303.169 342.314 292.474 347.711 279.207 351.445C295.929 355.493 309.326 361.634 319.241 369.997L319.84 370.496C332.317 381.016 338.598 394.646 338.598 411.162C338.598 425.483 334.114 437.599 325.289 447.448C334.517 443.822 342.537 439.313 349.349 433.921C370.144 417.457 380.543 392.112 380.543 357.886C380.543 322.792 370.144 296.147 349.349 277.95C336.724 266.904 320.587 259.211 300.938 254.87ZM313.806 369.419C314.853 370.182 315.863 370.965 316.839 371.77C316.462 371.459 316.081 371.151 315.693 370.847C315.113 370.39 314.52 369.941 313.915 369.499C313.879 369.472 313.842 369.446 313.806 369.419ZM313.694 369.339C313.363 369.098 313.028 368.859 312.689 368.623C313.028 368.859 313.363 369.098 313.694 369.339ZM298.761 360.924C298.732 360.911 298.704 360.899 298.676 360.887C298.621 360.863 298.566 360.84 298.511 360.816C298.594 360.853 298.678 360.888 298.761 360.924ZM295.511 359.57C295.504 359.567 295.496 359.564 295.489 359.562C295.463 359.551 295.437 359.542 295.411 359.531C295.444 359.544 295.478 359.557 295.511 359.57ZM224.342 346.388L225.045 346.385C225.369 346.382 225.692 346.374 226.015 346.37C225.46 346.377 224.902 346.383 224.342 346.388ZM123.83 343.496H222.535C249.291 343.496 269.247 339.48 282.734 331.775C296.012 324.191 302.461 313.345 302.461 298.967C302.461 291.706 300.735 285.502 297.379 280.248C294.015 274.983 288.904 270.502 281.878 266.871L281.866 266.865L281.854 266.858C268.046 259.563 246.316 255.746 216.275 255.746H123.83V343.496ZM282.84 335.032C282.311 335.317 281.772 335.595 281.226 335.869C281.768 335.597 282.304 335.321 282.83 335.038L282.84 335.032ZM283.21 264.295C283.671 264.533 284.125 264.775 284.572 265.021L283.896 264.654C283.669 264.533 283.441 264.413 283.21 264.294V264.295ZM121.123 226.61H254.468C255.816 226.61 257.152 226.597 258.477 226.575L121.123 54.4795V226.61ZM301.429 220.918C315.788 216.913 327.862 210.797 337.651 202.565C356.714 186.535 366.245 163.139 366.245 132.378C366.245 101.617 356.281 78.655 336.352 63.4912C327.101 56.296 315.459 50.8094 301.429 47.0283V220.918ZM278.649 218.428V42.6436C268.658 41.3787 257.782 40.7461 246.02 40.7461H136.733L278.649 218.428Z" fill="#051519"/>
</svg>
